#!OML:ASF E:\id_vita\Project 1\Capture day 1\Session 1\Female.ASF
:FULLY-SPECIFIED
:DEGREES
1097
root 21.57 14.2726 -4.52825 -1.19428 -83.2831 42.092
lowerback 12.289 -1.57513 -3.65644
upperback 5.66768 -2.6262 1.96945
thorax -0.682087 -1.47742 4.4426
lowerneck -10.5143 -1.60938 -3.74949
upperneck -17.2842 -1.64024 9.8856
head -3.31009 -1.36214 3.70607
rclavicle 1.26228e-014 -1.95306e-014
rhumerus -6.9845 24.8144 -94.3979
rradius 102.444
rwrist -26.7928
rhand -34.9702 -12.8521
rfingers 7.12502
rthumb -8.11602 -42.6762
lclavicle 1.26228e-014 -1.95306e-014
lhumerus 53.0165 -31.1928 80.6261
lradius 38.225
lwrist 28.3839
lhand 4.76182 52.7053
lfingers 7.12502
lthumb 30.1428 80.2666
rfemur -96.3522 -9.36753 66.2569
rtibia 29.5747
rfoot 14.0222 1.40132
rtoes 15.961
lfemur -68.0394 -2.63185 -34.4114
ltibia 76.3235
lfoot -26.6925 25.1515
ltoes -10.3168
1098
root 21.6416 14.2607 -4.51234 -2.95086 -83.3884 43.6133
lowerback 12.215 -1.55221 -3.82823
upperback 5.71235 -2.61566 1.89241
thorax -0.591701 -1.4781 4.45318
lowerneck -10.4585 -1.60839 -3.74546
upperneck -17.203 -1.63564 9.91839
head -3.29354 -1.35743 3.71415
rclavicle -4.33351e-014 -7.60351e-015
rhumerus -6.72859 24.8492 -94.366
rradius 102.21
rwrist -26.8544
rhand -34.9486 -12.5155
rfingers 7.12502
rthumb -8.09512 -42.3404
lclavicle -4.33351e-014 -7.60351e-015
lhumerus 52.8989 -31.0794 80.8319
lradius 38.093
lwrist 28.181
lhand 4.63349 53.1082
lfingers 7.12502
lthumb 30.0203 80.6918
rfemur -96.4198 -9.38958 66.263
rtibia 29.4533
rfoot 14.6121 2.01822
rtoes 15.3722
lfemur -67.8464 -2.72983 -34.337
ltibia 76.2779
lfoot -28.5359 23.5477
ltoes -3.47627
1099
root 21.7116 14.266 -4.4983 -4.7733 -83.3102 44.8903
lowerback 12.4923 -1.61059 -3.96362
upperback 5.82262 -2.72471 1.79349
thorax -0.612296 -1.53802 4.44845
lowerneck -10.2964 -1.55969 -3.88166
upperneck -17.2067 -1.53702 10.0936
head -3.32081 -1.30781 3.79421
rclavicle 1.97791e-014 -1.2921e-015
rhumerus -6.60984 24.8857 -94.4681
rradius 102.054
rwrist -26.7023
rhand -34.7402 -12.4
rfingers 7.12502
rthumb -7.89405 -42.2326
lclavicle 1.97791e-014 -1.2921e-015
lhumerus 52.9291 -31.0031 80.5704
lradius 38.0355
lwrist 28.4282
lhand 4.26923 53.0949
lfingers 7.12502
lthumb 29.6727 80.7409
rfemur -96.3651 -9.81306 66.3052
rtibia 29.3544
rfoot 15.193 2.30476
rtoes 15.2229
lfemur -67.4071 -2.72389 -34.5771
ltibia 76.1488
lfoot -29.0766 23.1838
ltoes -1.27081
1100
root 21.7832 14.283 -4.48024 -6.03496 -83.2266 45.519
lowerback 12.8688 -1.67575 -3.96306
upperback 5.96729 -2.83364 1.72557
thorax -0.655387 -1.59716 4.40363
lowerneck -10.4247 -1.54976 -3.93407
upperneck -17.0339 -1.51879 10.1604
head -3.24767 -1.28863 3.81925
rclavicle 8.59744e-015 1.31198e-014
rhumerus -6.43302 24.9304 -94.5044
rradius 101.952
rwrist -26.7342
rhand -34.6809 -12.7164
rfingers 7.12502
rthumb -7.83679 -42.5511
lclavicle 8.59744e-015 1.31198e-014
lhumerus 53.0036 -30.93 80.2467
lradius 38.1768
lwrist 28.8864
lhand 4.03602 52.9968
lfingers 7.12502
lthumb 29.4501 80.6822
rfemur -96.3066 -10.394 66.6529
rtibia 29.2661
rfoot 15.7339 2.63717
rtoes 15.8592
lfemur -67.0177 -2.53386 -35.1316
ltibia 75.9767
lfoot -28.428 24.1672
ltoes -3.86833
1101
root 21.8597 14.2742 -4.4617 -7.3103 -83.5036 46.7181
lowerback 12.6781 -1.59538 -4.05818
upperback 5.93507 -2.73103 1.72287
thorax -0.592466 -1.54835 4.43408
lowerneck -10.4945 -1.5676 -3.89305
upperneck -16.8405 -1.56281 10.0385
head -3.17845 -1.29759 3.76871
rclavicle 4.9895e-014 1.34677e-014
rhumerus -6.25725 24.9808 -94.39
rradius 101.855
rwrist -26.9745
rhand -34.7669 -12.7907
rfingers 7.12502
rthumb -7.91983 -42.6223
lclavicle 4.9895e-014 1.34677e-014
lhumerus 52.7879 -30.8589 80.4398
lradius 38.3482
lwrist 29.0721
lhand 4.07325 53.1432
lfingers 7.12502
lthumb 29.4856 80.8224
rfemur -96.4429 -10.2463 67.0765
rtibia 29.0976
rfoot 16.3518 3.28415
rtoes 16.6295
lfemur -67.2997 -2.06328 -36.0209
ltibia 75.9993
lfoot -27.3025 25.6545
ltoes -7.88405
1102
root 21.9327 14.264 -4.44236 -9.20141 -83.6059 48.3725
lowerback 12.7179 -1.57619 -4.15687
upperback 5.92707 -2.72054 1.64649
thorax -0.622354 -1.54316 4.41054
lowerneck -10.5907 -1.55264 -3.69346
upperneck -16.569 -1.5796 9.8857
head -3.08596 -1.29773 3.68026
rclavicle 3.57315e-014 -1.54058e-014
rhumerus -6.09976 25.0439 -94.3778
rradius 101.763
rwrist -27.1116
rhand -34.7925 -12.9635
rfingers 7.12502
rthumb -7.94451 -42.7942
lclavicle 3.57315e-014 -1.54058e-014
lhumerus 52.5451 -30.69 80.7743
lradius 38.3001
lwrist 28.8974
lhand 4.42886 53.6196
lfingers 7.12502
lthumb 29.8251 81.2384
rfemur -96.5174 -10.3244 67.2468
rtibia 28.8631
rfoot 17.0617 3.86659
rtoes 16.6799
lfemur -67.2756 -1.94847 -36.4631
ltibia 75.8869
lfoot -27.319 25.7881
ltoes -7.16812
1103
root 22.0082 14.2525 -4.422 -10.9725 -83.6606 49.9379
lowerback 12.7075 -1.61284 -4.16489
upperback 5.9536 -2.77262 1.53346
thorax -0.589252 -1.56943 4.3014
lowerneck -10.6387 -1.48703 -3.6212
upperneck -16.3385 -1.50331 9.85231
head -3.01553 -1.25044 3.65315
rclavicle -2.85753e-014 -1.55797e-014
rhumerus -5.96711 25.1086 -94.442
rradius 101.695
rwrist -27.1625
rhand -34.7669 -13.3966
rfingers 7.12502
rthumb -7.91979 -43.2283
lclavicle -2.85753e-014 -1.55797e-014
lhumerus 52.5404 -30.506 80.8484
lradius 38.091
lwrist 28.795
lhand 4.75306 53.7749
lfingers 7.12502
lthumb 30.1344 81.3378
rfemur -96.6646 -10.4118 67.5206
rtibia 28.5922
rfoot 17.8727 4.72712
rtoes 16.0773
lfemur -67.3464 -1.85695 -36.9386
ltibia 75.7884
lfoot -27.3584 25.9957
ltoes -6.14109
1104
root 22.0877 14.2463 -4.40267 -12.4734 -83.7395 51.3162
lowerback 12.5848 -1.65646 -4.22241
upperback 5.99268 -2.83298 1.51738
thorax -0.473514 -1.60473 4.31719
lowerneck -10.299 -1.36593 -3.88057
upperneck -16.5025 -1.30149 9.90533
head -3.12748 -1.14599 3.72121
rclavicle 2.66371e-014 5.08889e-014
rhumerus -5.76825 25.335 -94.3692
rradius 101.624
rwrist -27.3585
rhand -34.8508 -13.4397
rfingers 7.12502
rthumb -8.00074 -43.2683
lclavicle 2.66371e-014 5.08889e-014
lhumerus 52.7207 -30.2835 80.7803
lradius 37.8676
lwrist 28.8257
lhand 4.82916 53.5476
lfingers 7.12502
lthumb 30.207 81.0972
rfemur -96.8283 -10.4135 67.7458
rtibia 28.32
rfoot 18.7262 5.43775
rtoes 16.2796
lfemur -67.5271 -1.76372 -37.3971
ltibia 75.5936
lfoot -27.2406 26.33
ltoes -5.32494
1105
root 22.1679 14.2442 -4.3824 -14.3041 -83.8558 52.9204
lowerback 12.6382 -1.66564 -4.30577
upperback 6.03701 -2.85992 1.49036
thorax -0.4497 -1.6224 4.34036
lowerneck -10.548 -1.41095 -3.69146
upperneck -16.2031 -1.40732 9.72883
head -2.99701 -1.18803 3.62532
rclavicle -4.5472e-014 -1.58531e-014
rhumerus -5.57379 25.5255 -94.3446
rradius 101.533
rwrist -27.5539
rhand -34.9109 -13.0884
rfingers 7.12502
rthumb -8.05876 -42.9147
lclavicle -4.5472e-014 -1.58531e-014
lhumerus 52.8191 -30.066 80.7012
lradius 37.8339
lwrist 28.7852
lhand 4.29127 53.3847
lfingers 7.12502
lthumb 29.6937 81.027
rfemur -96.8564 -10.4793 67.9044
rtibia 28.0268
rfoot 19.4851 5.97335
rtoes 16.6029
lfemur -67.5222 -1.64963 -37.8123
ltibia 75.3609
lfoot -27.3953 26.5372
ltoes -4.06651
1106
root 22.2478 14.246 -4.3616 -15.9588 -83.8867 54.3318
lowerback 12.7152 -1.68281 -4.32724
upperback 6.06311 -2.89154 1.41291
thorax -0.463658 -1.63849 4.27791
lowerneck -10.2794 -1.37978 -3.63678
upperneck -16.2881 -1.35683 9.79632
head -3.06658 -1.17511 3.641
rclavicle 2.22887e-014 -2.82771e-014
rhumerus -5.39364 25.5275 -94.409
rradius 101.366
rwrist -27.6955
rhand -34.8503 -12.9174
rfingers 7.12502
rthumb -8.00026 -42.746
lclavicle 2.22887e-014 -2.82771e-014
lhumerus 52.9047 -29.9736 80.5558
lradius 37.8031
lwrist 28.7706
lhand 3.70266 53.5071
lfingers 7.12502
lthumb 29.1318 81.2482
rfemur -96.9471 -10.6361 68.1277
rtibia 27.7372
rfoot 20.3022 6.82715
rtoes 15.7586
lfemur -67.4242 -1.58283 -38.2272
ltibia 75.0894
lfoot -27.779 26.5848
ltoes -2.36161
1107
root 22.3301 14.2446 -4.34163 -17.1277 -83.8613 55.3972
lowerback 12.7179 -1.74411 -4.28904
upperback 6.01202 -2.96717 1.33968
thorax -0.517404 -1.67054 4.19019
lowerneck -10.2991 -1.31819 -3.69787
upperneck -16.0307 -1.26243 9.88882
head -2.98954 -1.11412 3.67557
rclavicle -6.35241e-014 6.358e-015
rhumerus -5.23495 25.5646 -94.449
rradius 101.166
rwrist -27.8611
rhand -34.8284 -12.7784
rfingers 7.12502
rthumb -7.97915 -42.6078
lclavicle -6.35241e-014 6.358e-015
lhumerus 53.1034 -29.9504 80.2766
lradius 37.5791
lwrist 28.8856
lhand 4.33046 53.8168
lfingers 7.12502
lthumb 29.7311 81.4524
rfemur -97.1966 -10.7067 68.3369
rtibia 27.4546
rfoot 21.2895 7.45571
rtoes 15.4886
lfemur -67.4791 -1.59651 -38.6373
ltibia 74.7865
lfoot -27.8836 26.7701
ltoes -1.60798
1108
root 22.4118 14.2346 -4.32128 -19.0877 -83.9264 57.2457
lowerback 12.8465 -1.76684 -4.2793
upperback 5.93848 -3.00143 1.25892
thorax -0.66567 -1.67981 4.11284
lowerneck -10.3953 -1.25935 -3.77652
upperneck -15.7439 -1.17903 9.91526
head -2.89254 -1.05307 3.69162
rclavicle 7.16867e-015 5.2709e-015
rhumerus -5.1517 25.6309 -94.4648
rradius 101.101
rwrist -27.9753
rhand -34.9759 -12.724
rfingers 7.12502
rthumb -8.12154 -42.5479
lclavicle 7.16867e-015 5.2709e-015
lhumerus 53.2081 -29.9315 80.0501
lradius 37.4456
lwrist 29.0221
lhand 5.39835 53.8284
lfingers 7.12502
lthumb 30.7499 81.2773
rfemur -97.3871 -10.6856 68.4627
rtibia 27.198
rfoot 22.2243 8.18452
rtoes 15.341
lfemur -67.5585 -1.54115 -39.0539
ltibia 74.4501
lfoot -27.3986 27.3393
ltoes -1.79708
1109
root 22.49 14.2331 -4.2977 -22.0727 -83.9583 60.0013
lowerback 12.8608 -1.72816 -4.4306
upperback 6.05567 -2.97533 1.20778
thorax -0.547136 -1.67756 4.13851
lowerneck -10.1418 -1.24391 -3.86118
upperneck -15.9301 -1.14189 9.93042
head -2.9894 -1.0415 3.71604
rclavicle -3.90115e-015 -5.22602e-014
rhumerus -4.82494 25.6778 -94.2801
rradius 101.028
rwrist -28.1813
rhand -35.3449 -12.6193
rfingers 7.12502
rthumb -8.47766 -42.4291
lclavicle -3.90115e-015 -5.22602e-014
lhumerus 53.3331 -29.8425 80.1021
lradius 37.4963
lwrist 29.0589
lhand 5.89578 54.242
lfingers 7.12502
lthumb 31.224 81.6005
rfemur -97.5119 -10.8096 68.4371
rtibia 27.0314
rfoot 23.2107 9.27724
rtoes 14.598
lfemur -67.462 -1.4307 -39.5478
ltibia 74.0111
lfoot -26.7271 27.9811
ltoes -1.20639
